<?xml version="1.0" encoding="utf-8"?>
<!-- Generator: Adobe Illustrator 21.0.0, SVG Export Plug-In . SVG Version: 6.00 Build 0)  -->
<svg version="1.1" id="图层_1" xmlns="http://www.w3.org/2000/svg" xmlns:xlink="http://www.w3.org/1999/xlink" x="0px" y="0px"
	 viewBox="0 0 270 130" style="enable-background:new 0 0 270 130;" xml:space="preserve">
<style type="text/css">
	.st0{fill:#1ACE65;}
	.st1{filter:url(#Adobe_OpacityMaskFilter);}
	.st2{fill:#FFFFFF;}
	.st3{mask:url(#mask-2);fill:#1ACE65;}
</style>
<title>Page 1</title>
<desc>Created with Sketch.</desc>
<g id="Group" transform="translate(240.000000, 287.000000)">
	<g id="Page-1">
		<path id="Fill-1" class="st0" d="M-158.2-280.1c0,3.8-3.1,6.9-6.9,6.9s-6.9-3.1-6.9-6.9s3.1-6.9,6.9-6.9S-158.2-283.9-158.2-280.1
			"/>
		<path id="Fill-3" class="st0" d="M-47.6-267c0,3.2-2.6,5.8-5.8,5.8c-3.2,0-5.8-2.6-5.8-5.8c0-3.2,2.6-5.8,5.8-5.8
			C-50.2-272.8-47.6-270.2-47.6-267"/>
		<path id="Fill-3-Copy" class="st0" d="M30-258c0,2.5-2,4.5-4.5,4.5c-2.5,0-4.5-2-4.5-4.5c0-2.5,2-4.5,4.5-4.5
			C28-262.5,30-260.5,30-258"/>
		<path id="Fill-5" class="st0" d="M-166.7-179.2c2.2,2.3,2,6-0.3,8.2c-2.3,2.2-6,2-8.2-0.3c-2.2-2.3-2-6,0.3-8.2
			C-172.5-181.7-168.9-181.6-166.7-179.2"/>
		<path id="Fill-5-Copy" class="st0" d="M-233.4-192.8c1.4,1.6,1.3,4-0.2,5.4c-1.6,1.4-4,1.3-5.4-0.2c-1.4-1.6-1.3-4,0.2-5.4
			C-237.2-194.4-234.8-194.3-233.4-192.8"/>
		<g id="Group-9" transform="translate(167.112098, 92.276145)">
			<g id="Clip-8">
			</g>
			<defs>
				<filter id="Adobe_OpacityMaskFilter" filterUnits="userSpaceOnUse" x="-239.3" y="-286.9" width="36.2" height="36.8">
					<feColorMatrix  type="matrix" values="1 0 0 0 0  0 1 0 0 0  0 0 1 0 0  0 0 0 1 0"/>
				</filter>
			</defs>
			<mask maskUnits="userSpaceOnUse" x="-239.3" y="-286.9" width="36.2" height="36.8" id="mask-2">
				<g class="st1">
					<polygon id="path-1" class="st2" points="-239.3,-250.1 -203.1,-250.1 -203.1,-286.9 -239.3,-286.9 					"/>
				</g>
			</mask>
			<path id="Fill-7" class="st3" d="M-219.3-286.9c-4.3,9.6-11.2,17.7-20,23.4c2.2,7.7,9.3,13.4,17.7,13.4
				c10.2,0,18.5-8.3,18.5-18.5C-203.1-278-210.2-285.8-219.3-286.9"/>
		</g>
		<path id="Fill-10" class="st0" d="M-151.3-253.5c0,7-5.7,12.7-12.7,12.7c-7,0-12.7-5.7-12.7-12.7s5.7-12.7,12.7-12.7
			C-157-266.2-151.3-260.6-151.3-253.5"/>
		<path id="Fill-12" class="st0" d="M-116.2-196l-22.6-29.8l7.5-4.5l13.5,14c0,0,20.5-17.3,44-27.5l2.1,3.6
			C-71.7-240.2-99.4-222.4-116.2-196 M-108.6-275.5c-15.8,0-30,6.8-40,17.6c1.2,1.9,1.9,4.2,1.9,6.6c0,7-5.7,12.7-12.7,12.7
			c-0.2,0-0.4,0-0.6,0c-1.8,5.4-2.8,11.3-2.8,17.3c0,29.9,24.3,54.2,54.2,54.2c29.9,0,54.2-24.3,54.2-54.2
			C-54.4-251.2-78.7-275.5-108.6-275.5"/>
		<path id="Fill-14" class="st0" d="M-135.2-275.4c-1.5-1.5-3.5-2.4-5.7-2.4c-4.5,0-8.1,3.6-8.1,8.1c0,1.5,0.4,2.9,1.2,4.1
			C-144.2-269.4-139.9-272.8-135.2-275.4"/>
	</g>
</g>
</svg>
